<?xml version="1.0" encoding="UTF-8" standalone="no"?>
<svg
   xmlns:dc="http://purl.org/dc/elements/1.1/"
   xmlns:cc="http://creativecommons.org/ns#"
   xmlns:rdf="http://www.w3.org/1999/02/22-rdf-syntax-ns#"
   xmlns:svg="http://www.w3.org/2000/svg"
   xmlns="http://www.w3.org/2000/svg"
   version="1.1"
   x="0px"
   y="0px"
   viewBox="0 0 126 102.46272"
   enable-background="new 0 0 128 128"
   xml:space="preserve"
   id="svg3398"
   width="126"
   height="102.46272"><metadata
     id="metadata3420"><rdf:RDF><cc:Work
         rdf:about=""><dc:format>image/svg+xml</dc:format><dc:type
           rdf:resource="http://purl.org/dc/dcmitype/StillImage" /><dc:title></dc:title></cc:Work></rdf:RDF></metadata><defs
     id="defs3418" /><g
     id="g3400"
     transform="translate(-1,-23.937287)"
     style="fill:#000000;fill-opacity:1"><path
       d="m 112.5,97.4 -97,0 c -8,0 -14.5,6.5 -14.5,14.5 0,8 6.5,14.5 14.5,14.5 l 97,0 c 8,0 14.5,-6.5 14.5,-14.5 0,-8 -6.5,-14.5 -14.5,-14.5 z"
       id="path3402"
       style="fill:#000000;fill-opacity:1" /><path
       d="m 93.983051,63.937287 c 11.099999,0 19.999999,-9 19.999999,-20 0,-11 -9,-20 -19.999999,-20 -11.1,0 -20,9 -20,20 0,11 8.9,20 20,20 z m 0,-32.8 c 6.999999,0 12.799999,5.7 12.799999,12.8 0,1.4 -1.1,2.6 -2.6,2.6 -1.4,0 -2.6,-1.1 -2.6,-2.6 0,-4.2 -3.399999,-7.6 -7.599999,-7.6 -1.4,0 -2.6,-1.1 -2.6,-2.6 0,-1.5 1.2,-2.6 2.6,-2.6 z"
       id="path3404"
       style="fill:#000000;fill-opacity:1" /><path
       d="m 47.383051,69.837287 c 0.7,0 1.3,-0.3 1.8,-0.8 l 18.7,-18.7 c 1,-1 1,-2.6 0,-3.6 -1,-1 -2.6,-1 -3.6,0 l -18.8,18.8 c -1,1 -1,2.6 0,3.6 0.5,0.5 1.2,0.7 1.9,0.7 z"
       id="path3406"
       style="fill:#000000;fill-opacity:1" /><path
       d="m 53.483051,84.337287 c 0.5,0.5 1.2,0.8 1.8,0.8 0.6,0 1.3,-0.3 1.8,-0.8 l 18.7,-18.7 c 1,-1 1,-2.6 0,-3.6 -1,-1 -2.6,-1 -3.6,0 l -18.7,18.7 c -1,1 -1,2.6 0,3.6 z"
       id="path3408"
       style="fill:#000000;fill-opacity:1" /><path
       d="m 87.383051,69.937287 -18.7,18.8 c -1,1 -1,2.6 0,3.6 0.5,0.5 1.2,0.8 1.8,0.8 0.7,0 1.3,-0.3 1.8,-0.8 l 18.7,-18.7 c 1,-1 1,-2.6 0,-3.6 -0.9,-1.1 -2.6,-1.1 -3.6,-0.1 z"
       id="path3410"
       style="fill:#000000;fill-opacity:1" /></g></svg>