<?xml version="1.0" encoding="UTF-8" standalone="no"?>
<svg
   xmlns:dc="http://purl.org/dc/elements/1.1/"
   xmlns:cc="http://creativecommons.org/ns#"
   xmlns:rdf="http://www.w3.org/1999/02/22-rdf-syntax-ns#"
   xmlns:svg="http://www.w3.org/2000/svg"
   xmlns="http://www.w3.org/2000/svg"
   height="128"
   width="128"
   id="svg3398"
   xml:space="preserve"
   enable-background="new 0 0 128 128"
   viewBox="0 0 128 128"
   y="0px"
   x="0px"
   version="1.1"><metadata
     id="metadata3420"><rdf:RDF><cc:Work
         rdf:about=""><dc:format>image/svg+xml</dc:format><dc:type
           rdf:resource="http://purl.org/dc/dcmitype/StillImage" /><dc:title></dc:title></cc:Work></rdf:RDF></metadata><defs
     id="defs3418" /><g
     style=""
     transform="translate(0.2519685,-1.2440945)"
     id="g3400"><path
       style="fill:#000000"
       id="path3402"
       d="m 112.5,97.4 -97,0 c -8,0 -14.5,6.5 -14.5,14.5 0,8 6.5,14.5 14.5,14.5 l 97,0 c 8,0 14.5,-6.5 14.5,-14.5 0,-8 -6.5,-14.5 -14.5,-14.5 z" /><path
       style="fill:#000000"
       id="path3404"
       d="m 107,41.7 c 11.1,0 20,-9 20,-20 0,-11 -9,-20 -20,-20 -11.1,0 -20,9 -20,20 0,11 8.9,20 20,20 z m 0,-32.8 c 7,0 12.8,5.7 12.8,12.8 0,1.4 -1.1,2.6 -2.6,2.6 -1.4,0 -2.6,-1.1 -2.6,-2.6 0,-4.2 -3.4,-7.6 -7.6,-7.6 -1.4,0 -2.6,-1.1 -2.6,-2.6 0,-1.5 1.2,-2.6 2.6,-2.6 z" /><path
       style="fill:#000000"
       id="path3406"
       d="m 60.4,47.6 c 0.7,0 1.3,-0.3 1.8,-0.8 L 80.9,28.1 c 1,-1 1,-2.6 0,-3.6 -1,-1 -2.6,-1 -3.6,0 L 58.5,43.3 c -1,1 -1,2.6 0,3.6 0.5,0.5 1.2,0.7 1.9,0.7 z" /><path
       style="fill:#000000"
       id="path3408"
       d="m 66.5,62.1 c 0.5,0.5 1.2,0.8 1.8,0.8 0.6,0 1.3,-0.3 1.8,-0.8 L 88.8,43.4 c 1,-1 1,-2.6 0,-3.6 -1,-1 -2.6,-1 -3.6,0 L 66.5,58.5 c -1,1 -1,2.6 0,3.6 z" /><path
       style="fill:#000000"
       id="path3410"
       d="M 100.4,47.7 81.7,66.5 c -1,1 -1,2.6 0,3.6 0.5,0.5 1.2,0.8 1.8,0.8 0.7,0 1.3,-0.3 1.8,-0.8 L 104,51.4 c 1,-1 1,-2.6 0,-3.6 -0.9,-1.1 -2.6,-1.1 -3.6,-0.1 z" /></g><flowRoot
     transform="translate(-0.2519685,14.110236)"
     style="font-style:normal;font-weight:normal;font-size:12.5px;line-height:125%;font-family:sans-serif;letter-spacing:0px;word-spacing:0px;fill:#000000;fill-opacity:1;stroke:none;stroke-width:1px;stroke-linecap:butt;stroke-linejoin:miter;stroke-opacity:1"
     id="flowRoot3589"
     xml:space="preserve"><flowRegion
       id="flowRegion3591"><rect
         y="64"
         x="11.84252"
         height="32"
         width="118.4252"
         id="rect3593" /></flowRegion><flowPara
       style="font-style:normal;font-variant:normal;font-weight:normal;font-stretch:normal;font-size:17.5px;font-family:Roboto;-inkscape-font-specification:Roboto"
       id="flowPara3595"><flowSpan
   id="flowSpan3601"
   style="font-size:18.75px">BounceBac</flowSpan>k</flowPara></flowRoot></svg>