<?xml version="1.0" encoding="UTF-8" standalone="no"?>
<svg
   xmlns:dc="http://purl.org/dc/elements/1.1/"
   xmlns:cc="http://creativecommons.org/ns#"
   xmlns:rdf="http://www.w3.org/1999/02/22-rdf-syntax-ns#"
   xmlns:svg="http://www.w3.org/2000/svg"
   xmlns="http://www.w3.org/2000/svg"
   xmlns:sodipodi="http://sodipodi.sourceforge.net/DTD/sodipodi-0.dtd"
   xmlns:inkscape="http://www.inkscape.org/namespaces/inkscape"
   version="1.1"
   x="0px"
   y="0px"
   viewBox="0 0 128 128"
   enable-background="new 0 0 128 128"
   xml:space="preserve"
   id="svg3398"
   inkscape:version="0.91 r13725"
   sodipodi:docname="bounce.svg"
   width="128"
   height="128"><metadata
     id="metadata3420"><rdf:RDF><cc:Work
         rdf:about=""><dc:format>image/svg+xml</dc:format><dc:type
           rdf:resource="http://purl.org/dc/dcmitype/StillImage" /><dc:title></dc:title></cc:Work></rdf:RDF></metadata><defs
     id="defs3418" /><sodipodi:namedview
     pagecolor="#ffffff"
     bordercolor="#666666"
     borderopacity="1"
     objecttolerance="10"
     gridtolerance="10"
     guidetolerance="10"
     inkscape:pageopacity="0"
     inkscape:pageshadow="2"
     inkscape:window-width="1164"
     inkscape:window-height="755"
     id="namedview3416"
     showgrid="false"
     inkscape:zoom="3.96875"
     inkscape:cx="53.92126"
     inkscape:cy="100.15748"
     inkscape:window-x="0"
     inkscape:window-y="0"
     inkscape:window-maximized="0"
     inkscape:current-layer="svg3398" /><g
     id="g3400"
     transform="translate(0.2519685,-1.2440945)"><path
       d="m 112.5,97.4 -97,0 c -8,0 -14.5,6.5 -14.5,14.5 0,8 6.5,14.5 14.5,14.5 l 97,0 c 8,0 14.5,-6.5 14.5,-14.5 0,-8 -6.5,-14.5 -14.5,-14.5 z"
       id="path3402"
       inkscape:connector-curvature="0"
       style="fill:#000000" /><path
       d="m 107,41.7 c 11.1,0 20,-9 20,-20 0,-11 -9,-20 -20,-20 -11.1,0 -20,9 -20,20 0,11 8.9,20 20,20 z m 0,-32.8 c 7,0 12.8,5.7 12.8,12.8 0,1.4 -1.1,2.6 -2.6,2.6 -1.4,0 -2.6,-1.1 -2.6,-2.6 0,-4.2 -3.4,-7.6 -7.6,-7.6 -1.4,0 -2.6,-1.1 -2.6,-2.6 0,-1.5 1.2,-2.6 2.6,-2.6 z"
       id="path3404"
       inkscape:connector-curvature="0"
       style="fill:#000000" /><path
       d="m 60.4,47.6 c 0.7,0 1.3,-0.3 1.8,-0.8 L 80.9,28.1 c 1,-1 1,-2.6 0,-3.6 -1,-1 -2.6,-1 -3.6,0 L 58.5,43.3 c -1,1 -1,2.6 0,3.6 0.5,0.5 1.2,0.7 1.9,0.7 z"
       id="path3406"
       inkscape:connector-curvature="0"
       style="fill:#000000" /><path
       d="m 66.5,62.1 c 0.5,0.5 1.2,0.8 1.8,0.8 0.6,0 1.3,-0.3 1.8,-0.8 L 88.8,43.4 c 1,-1 1,-2.6 0,-3.6 -1,-1 -2.6,-1 -3.6,0 L 66.5,58.5 c -1,1 -1,2.6 0,3.6 z"
       id="path3408"
       inkscape:connector-curvature="0"
       style="fill:#000000" /><path
       d="M 100.4,47.7 81.7,66.5 c -1,1 -1,2.6 0,3.6 0.5,0.5 1.2,0.8 1.8,0.8 0.7,0 1.3,-0.3 1.8,-0.8 L 104,51.4 c 1,-1 1,-2.6 0,-3.6 -0.9,-1.1 -2.6,-1.1 -3.6,-0.1 z"
       id="path3410"
       inkscape:connector-curvature="0"
       style="fill:#000000" /></g></svg>