<?xml version="1.0" encoding="UTF-8" standalone="no"?>
<svg
   xmlns:dc="http://purl.org/dc/elements/1.1/"
   xmlns:cc="http://creativecommons.org/ns#"
   xmlns:rdf="http://www.w3.org/1999/02/22-rdf-syntax-ns#"
   xmlns:svg="http://www.w3.org/2000/svg"
   xmlns="http://www.w3.org/2000/svg"
   version="1.1"
   x="0px"
   y="0px"
   viewBox="0 0 128 128"
   enable-background="new 0 0 128 128"
   xml:space="preserve"
   id="svg3398"
   width="128"
   height="128"><metadata
     id="metadata3420"><rdf:RDF><cc:Work
         rdf:about=""><dc:format>image/svg+xml</dc:format><dc:type
           rdf:resource="http://purl.org/dc/dcmitype/StillImage" /><dc:title></dc:title></cc:Work></rdf:RDF></metadata><defs
     id="defs3418" /><g
     id="g3400"
     transform="translate(0.2519685,-1.2440945)"
     style="fill:#ffffff;fill-opacity:1"><path
       d="m 112.5,97.4 -97,0 c -8,0 -14.5,6.5 -14.5,14.5 0,8 6.5,14.5 14.5,14.5 l 97,0 c 8,0 14.5,-6.5 14.5,-14.5 0,-8 -6.5,-14.5 -14.5,-14.5 z"
       id="path3402"
       style="fill:#ffffff;fill-opacity:1" /><path
       d="m 93.983051,63.937287 c 11.099999,0 19.999999,-9 19.999999,-20 0,-11 -9,-20 -19.999999,-20 -11.1,0 -20,9 -20,20 0,11 8.9,20 20,20 z m 0,-32.8 c 6.999999,0 12.799999,5.7 12.799999,12.8 0,1.4 -1.1,2.6 -2.6,2.6 -1.4,0 -2.6,-1.1 -2.6,-2.6 0,-4.2 -3.399999,-7.6 -7.599999,-7.6 -1.4,0 -2.6,-1.1 -2.6,-2.6 0,-1.5 1.2,-2.6 2.6,-2.6 z"
       id="path3404"
       style="fill:#ffffff;fill-opacity:1" /><path
       d="m 47.383051,69.837287 c 0.7,0 1.3,-0.3 1.8,-0.8 l 18.7,-18.7 c 1,-1 1,-2.6 0,-3.6 -1,-1 -2.6,-1 -3.6,0 l -18.8,18.8 c -1,1 -1,2.6 0,3.6 0.5,0.5 1.2,0.7 1.9,0.7 z"
       id="path3406"
       style="fill:#ffffff;fill-opacity:1" /><path
       d="m 53.483051,84.337287 c 0.5,0.5 1.2,0.8 1.8,0.8 0.6,0 1.3,-0.3 1.8,-0.8 l 18.7,-18.7 c 1,-1 1,-2.6 0,-3.6 -1,-1 -2.6,-1 -3.6,0 l -18.7,18.7 c -1,1 -1,2.6 0,3.6 z"
       id="path3408"
       style="fill:#ffffff;fill-opacity:1" /><path
       d="m 87.383051,69.937287 -18.7,18.8 c -1,1 -1,2.6 0,3.6 0.5,0.5 1.2,0.8 1.8,0.8 0.7,0 1.3,-0.3 1.8,-0.8 l 18.7,-18.7 c 1,-1 1,-2.6 0,-3.6 -0.9,-1.1 -2.6,-1.1 -3.6,-0.1 z"
       id="path3410"
       style="fill:#ffffff;fill-opacity:1" /></g><g
     id="flowRoot3589"
     style="font-style:normal;font-weight:normal;font-size:12.5px;line-height:125%;font-family:sans-serif;letter-spacing:0px;word-spacing:0px;fill:#424242;fill-opacity:1;stroke:none;stroke-width:1px;stroke-linecap:butt;stroke-linejoin:miter;stroke-opacity:1"
     transform="translate(-0.7943414,33.093287)"><path
       id="path4145"
       style="font-size:18.75px;fill:#424242;fill-opacity:1"
       d="m 13.662436,84.385196 0,-13.330078 4.788208,0 q 1.235962,0 2.206421,0.228882 0.979614,0.219727 1.657104,0.67749 0.677491,0.457764 1.034546,1.153565 0.357056,0.686645 0.357056,1.620483 0,0.457764 -0.100708,0.888062 -0.100708,0.421142 -0.32959,0.796509 -0.219727,0.375366 -0.576782,0.67749 -0.357056,0.292969 -0.869751,0.485229 0.595093,0.15564 1.00708,0.448609 0.411987,0.292968 0.668335,0.67749 0.256348,0.384521 0.366211,0.83313 0.119018,0.439453 0.119018,0.897217 0,1.977539 -1.263427,2.966308 -1.263428,0.979614 -3.744507,0.979614 l -5.319214,0 z m 3.213501,-5.667114 0,3.195191 2.105713,0 q 0.485229,0 0.823974,-0.119019 0.347901,-0.119018 0.558472,-0.320434 0.219727,-0.210572 0.320435,-0.48523 0.100708,-0.274658 0.100708,-0.595093 0,-0.384521 -0.09155,-0.695801 -0.09155,-0.311279 -0.292969,-0.52185 -0.201416,-0.219727 -0.52185,-0.338745 -0.320435,-0.119019 -0.778199,-0.119019 l -2.224731,0 z m 0,-2.105713 1.675415,0 q 1.052856,-0.0092 1.501465,-0.384521 0.448608,-0.375366 0.448608,-1.107788 0,-0.842285 -0.485229,-1.208496 -0.48523,-0.375367 -1.565552,-0.375367 l -1.574707,0 0,3.076172 z" /><path
       id="path4147"
       style="font-size:18.75px;fill:#424242;fill-opacity:1"
       d="m 25.216391,79.340641 q 0,-1.080322 0.311279,-2.005005 0.31128,-0.924683 0.915528,-1.602173 0.604248,-0.67749 1.492309,-1.052856 0.897217,-0.384522 2.050781,-0.384522 1.171875,0 2.059937,0.384522 0.897217,0.375366 1.501465,1.052856 0.604248,0.67749 0.915527,1.602173 0.311279,0.924683 0.311279,2.005005 l 0,0.192261 q 0,1.089477 -0.311279,2.01416 -0.302124,0.915527 -0.906372,1.593017 -0.604248,0.668335 -1.501465,1.052857 -0.888061,0.375366 -2.050781,0.375366 -1.16272,0 -2.059936,-0.375366 -0.888062,-0.384522 -1.501465,-1.052857 -0.604248,-0.67749 -0.915528,-1.593017 -0.311279,-0.924683 -0.311279,-2.01416 l 0,-0.192261 z m 3.085327,0.192261 q 0,0.558471 0.07324,1.043701 0.0824,0.485229 0.274659,0.842285 0.201416,0.357056 0.531005,0.567627 0.32959,0.201416 0.823975,0.201416 0.48523,0 0.805664,-0.201416 0.32959,-0.210571 0.521851,-0.567627 0.19226,-0.357056 0.274658,-0.842285 0.0824,-0.48523 0.0824,-1.043701 l 0,-0.192261 q 0,-0.540161 -0.0824,-1.025391 -0.07324,-0.485229 -0.274658,-0.842285 -0.192261,-0.366211 -0.521851,-0.576782 -0.32959,-0.219727 -0.823975,-0.219727 -0.485229,0 -0.814819,0.219727 -0.320434,0.210571 -0.512695,0.576782 -0.192261,0.357056 -0.274658,0.842285 -0.0824,0.48523 -0.0824,1.025391 l 0,0.192261 z" /><path
       id="path4149"
       style="font-size:18.75px;fill:#424242;fill-opacity:1"
       d="m 42.052939,83.31403 q -0.466919,0.595092 -1.126099,0.924682 -0.659179,0.32959 -1.519775,0.32959 -0.732422,0 -1.345825,-0.201416 -0.604248,-0.210571 -1.043702,-0.650024 -0.430297,-0.448609 -0.67749,-1.14441 -0.238037,-0.704956 -0.238037,-1.68457 l 0,-6.408691 3.085327,0 0,6.427002 q 0,0.659179 0.31128,0.970459 0.320434,0.311279 0.924682,0.311279 0.576782,0 0.933838,-0.201416 0.366211,-0.201416 0.576782,-0.558472 l 0,-6.948852 3.103638,0 0,9.906005 -2.893066,0 -0.09155,-1.071166 z" /><path
       id="path4151"
       style="font-size:18.75px;fill:#424242;fill-opacity:1"
       d="m 49.569418,74.479191 0.100708,1.162719 q 0.50354,-0.659179 1.217652,-0.997924 0.723266,-0.347901 1.611328,-0.347901 0.686645,0 1.254272,0.201416 0.576783,0.192261 0.98877,0.650025 0.411987,0.448608 0.631714,1.190185 0.228882,0.732422 0.228882,1.812744 l 0,6.234741 -3.094483,0 0,-6.243896 q 0,-0.448608 -0.100708,-0.732422 -0.09155,-0.283813 -0.274658,-0.448608 -0.17395,-0.164795 -0.439453,-0.219727 -0.256348,-0.06409 -0.585938,-0.06409 -0.494384,0 -0.823974,0.192261 -0.320435,0.192261 -0.521851,0.521851 l 0,6.994628 -3.085327,0 0,-9.906005 2.893066,0 z" /><path
       id="path4153"
       style="font-size:18.75px;fill:#424242;fill-opacity:1"
       d="m 61.507895,82.187931 q 0.650024,0 1.00708,-0.347901 0.357056,-0.357055 0.3479,-0.988769 l 2.893067,0 q 0,0.842285 -0.320435,1.528931 -0.311279,0.67749 -0.869751,1.171875 -0.558471,0.485229 -1.327514,0.750732 -0.769043,0.265503 -1.657105,0.265503 -1.16272,0 -2.032471,-0.384522 -0.869751,-0.384521 -1.455688,-1.052856 -0.576782,-0.67749 -0.869751,-1.593018 -0.292969,-0.924682 -0.292969,-1.995849 l 0,-0.210571 q 0,-1.071167 0.292969,-1.99585 0.292969,-0.924683 0.869751,-1.593018 0.576782,-0.67749 1.437378,-1.062011 0.869751,-0.384522 2.023315,-0.384522 0.933838,0 1.702881,0.265503 0.778198,0.265503 1.327515,0.778198 0.558471,0.50354 0.860596,1.245118 0.311279,0.741577 0.311279,1.68457 l -2.893067,0 q 0,-0.32959 -0.0824,-0.622559 -0.07324,-0.292969 -0.247192,-0.50354 -0.173951,-0.219726 -0.439454,-0.338745 -0.256347,-0.128174 -0.613403,-0.128174 -0.476074,0 -0.769043,0.219727 -0.283813,0.210571 -0.439453,0.576782 -0.15564,0.357056 -0.210571,0.842285 -0.04578,0.48523 -0.04578,1.016236 l 0,0.210571 q 0,0.549316 0.04578,1.034546 0.05493,0.476074 0.210571,0.842285 0.15564,0.357056 0.448608,0.567627 0.302124,0.201416 0.787354,0.201416 z" /><path
       id="path4155"
       style="font-size:18.75px;fill:#424242;fill-opacity:1"
       d="m 71.853354,84.568302 q -1.208496,0 -2.160645,-0.384522 -0.952148,-0.384521 -1.602172,-1.043701 -0.650025,-0.659179 -0.997925,-1.52893 -0.338745,-0.869751 -0.338745,-1.849366 l 0,-0.3479 q 0,-1.080322 0.292968,-2.01416 0.302124,-0.942993 0.897217,-1.629639 0.604248,-0.686645 1.49231,-1.080322 0.897217,-0.393677 2.087402,-0.393677 1.052857,0 1.885986,0.338745 0.842286,0.338745 1.419068,0.970459 0.585937,0.631714 0.888061,1.528931 0.31128,0.897217 0.31128,2.01416 l 0,1.254273 -6.134034,0 q 0.164795,0.833129 0.723267,1.309204 0.558472,0.476074 1.446533,0.476074 0.631714,0 1.235962,-0.238037 0.613403,-0.238037 1.052857,-0.787354 l 1.409912,1.66626 q -0.238037,0.32959 -0.613404,0.640869 -0.366211,0.311279 -0.860595,0.558472 -0.494385,0.238037 -1.107788,0.384521 -0.613404,0.15564 -1.327515,0.15564 z m -0.3479,-7.891846 q -0.393677,0 -0.677491,0.137329 -0.283813,0.137329 -0.476074,0.375367 -0.183105,0.238037 -0.292969,0.567627 -0.109863,0.329589 -0.164795,0.714111 l 3.112793,0 0,-0.238037 q 0.01831,-0.741577 -0.375366,-1.144409 -0.393677,-0.411988 -1.126098,-0.411988 z" /><path
       id="path4157"
       style="font-size:18.75px;fill:#424242;fill-opacity:1"
       d="m 77.383139,84.385196 0,-13.330078 4.788208,0 q 1.235962,0 2.206421,0.228882 0.979614,0.219727 1.657104,0.67749 0.677491,0.457764 1.034546,1.153565 0.357056,0.686645 0.357056,1.620483 0,0.457764 -0.100708,0.888062 -0.100708,0.421142 -0.32959,0.796509 -0.219726,0.375366 -0.576782,0.67749 -0.357056,0.292969 -0.869751,0.485229 0.595093,0.15564 1.00708,0.448609 0.411987,0.292968 0.668335,0.67749 0.256348,0.384521 0.366211,0.83313 0.119019,0.439453 0.119019,0.897217 0,1.977539 -1.263428,2.966308 -1.263428,0.979614 -3.744507,0.979614 l -5.319214,0 z m 3.213501,-5.667114 0,3.195191 2.105713,0 q 0.485229,0 0.823975,-0.119019 0.3479,-0.119018 0.558471,-0.320434 0.219727,-0.210572 0.320435,-0.48523 0.100708,-0.274658 0.100708,-0.595093 0,-0.384521 -0.09155,-0.695801 -0.09155,-0.311279 -0.292969,-0.52185 -0.201416,-0.219727 -0.52185,-0.338745 -0.320435,-0.119019 -0.778199,-0.119019 l -2.224731,0 z m 0,-2.105713 1.675415,0 q 1.052857,-0.0092 1.501465,-0.384521 0.448608,-0.375366 0.448608,-1.107788 0,-0.842285 -0.485229,-1.208496 -0.48523,-0.375367 -1.565552,-0.375367 l -1.574707,0 0,3.076172 z" /><path
       id="path4159"
       style="font-size:18.75px;fill:#424242;fill-opacity:1"
       d="m 94.906332,84.385196 q -0.100708,-0.183105 -0.17395,-0.402832 -0.06409,-0.228881 -0.119018,-0.485229 -0.357056,0.448608 -0.924683,0.759888 -0.567627,0.311279 -1.455688,0.311279 -0.686646,0 -1.300049,-0.219727 -0.604248,-0.219726 -1.062012,-0.604248 -0.457764,-0.393676 -0.732422,-0.942993 -0.265503,-0.549316 -0.265503,-1.208496 0,-0.769043 0.274658,-1.373291 0.283814,-0.604248 0.851441,-1.016235 0.576782,-0.421143 1.446533,-0.640869 0.878906,-0.228882 2.078247,-0.228882 l 0.952149,0 0,-0.521851 q 0,-0.631714 -0.274659,-0.997925 -0.274658,-0.366211 -0.906372,-0.366211 -0.531006,0 -0.814819,0.265503 -0.283814,0.265503 -0.283814,0.81482 l -3.085327,0 q 0,-0.686646 0.302124,-1.281739 0.31128,-0.595092 0.878907,-1.02539 0.567627,-0.430298 1.364135,-0.67749 0.805664,-0.247193 1.794434,-0.247193 0.888061,0 1.638794,0.219727 0.759888,0.219726 1.309204,0.668335 0.549316,0.439453 0.860596,1.107788 0.311279,0.659179 0.311279,1.538086 l 0,4.055786 q 0,0.485229 0.02747,0.842285 0.02747,0.357056 0.0824,0.631714 0.05493,0.265503 0.128174,0.476074 0.0824,0.210571 0.183106,0.393677 l 0,0.155639 -3.085328,0 z m -1.931762,-2.01416 q 0.576782,0 0.952148,-0.247192 0.384522,-0.247192 0.549317,-0.558472 l 0,-1.583862 -0.970459,0 q -0.430298,0 -0.732422,0.119019 -0.292969,0.119018 -0.476074,0.320434 -0.173951,0.201416 -0.256348,0.466919 -0.07324,0.256348 -0.07324,0.540161 0,0.421143 0.283813,0.686646 0.283814,0.256347 0.723267,0.256347 z" /><path
       id="path4161"
       style="font-size:18.75px;fill:#424242;fill-opacity:1"
       d="m 103.43905,82.187931 q 0.65002,0 1.00708,-0.347901 0.35705,-0.357055 0.3479,-0.988769 l 2.89307,0 q 0,0.842285 -0.32044,1.528931 -0.31128,0.67749 -0.86975,1.171875 -0.55847,0.485229 -1.32752,0.750732 -0.76904,0.265503 -1.6571,0.265503 -1.16272,0 -2.03247,-0.384522 -0.86975,-0.384521 -1.45569,-1.052856 -0.576782,-0.67749 -0.869751,-1.593018 -0.292968,-0.924682 -0.292968,-1.995849 l 0,-0.210571 q 0,-1.071167 0.292968,-1.99585 0.292969,-0.924683 0.869751,-1.593018 0.57678,-0.67749 1.43738,-1.062011 0.86975,-0.384522 2.02331,-0.384522 0.93384,0 1.70289,0.265503 0.77819,0.265503 1.32751,0.778198 0.55847,0.50354 0.8606,1.245118 0.31128,0.741577 0.31128,1.68457 l -2.89307,0 q 0,-0.32959 -0.0824,-0.622559 -0.0732,-0.292969 -0.24719,-0.50354 -0.17395,-0.219726 -0.43945,-0.338745 -0.25635,-0.128174 -0.61341,-0.128174 -0.47607,0 -0.76904,0.219727 -0.28381,0.210571 -0.43945,0.576782 -0.15564,0.357056 -0.21057,0.842285 -0.0458,0.48523 -0.0458,1.016236 l 0,0.210571 q 0,0.549316 0.0458,1.034546 0.0549,0.476074 0.21057,0.842285 0.15564,0.357056 0.4486,0.567627 0.30213,0.201416 0.78736,0.201416 z" /><path
       id="path4163"
       style="font-style:normal;font-variant:normal;font-weight:normal;font-stretch:normal;font-size:17.5px;font-family:Roboto;-inkscape-font-specification:Roboto;fill:#424242;fill-opacity:1"
       d="m 112.64681,80.941593 -0.81177,0.811768 0,2.631835 -2.87963,0 0,-13.133544 2.87963,0 0,6.972656 0.29053,-0.384522 2.17041,-2.700195 3.45215,0 -3.23853,3.80249 3.45215,5.443115 -3.29834,0 -2.0166,-3.443603 z" /></g></svg>