<?xml version="1.0" standalone="no"?>
<!DOCTYPE svg PUBLIC "-//W3C//DTD SVG 20010904//EN"
 "http://www.w3.org/TR/2001/REC-SVG-20010904/DTD/svg10.dtd">
<svg version="1.0" xmlns="http://www.w3.org/2000/svg"
 width="1008.000000pt" height="1008.000000pt" viewBox="0 0 1008.000000 1008.000000"
 preserveAspectRatio="xMidYMid meet">
<metadata>
Created by potrace 1.11, written by Peter Selinger 2001-2013
</metadata>
<g transform="translate(0.000000,1008.000000) scale(0.100000,-0.100000)"
fill="#000000" stroke="none">
<path d="M7289 9136 c-2 -2 -26 -6 -54 -10 -59 -7 -96 -14 -150 -27 -22 -5
-49 -12 -60 -14 -62 -14 -193 -64 -281 -106 -361 -174 -627 -459 -794 -854
-26 -60 -66 -202 -62 -217 1 -5 -3 -8 -9 -8 -5 0 -8 -4 -5 -9 3 -4 1 -23 -5
-42 -13 -44 -22 -127 -23 -206 -1 -35 -3 -63 -6 -63 -3 0 -5 -22 -5 -50 0 -27
2 -50 5 -50 3 0 5 -19 4 -42 -1 -36 8 -101 30 -233 2 -11 4 -20 5 -20 3 0 10
-30 15 -55 2 -12 8 -35 31 -110 1 -3 7 -18 13 -33 7 -16 12 -31 12 -34 0 -15
94 -203 102 -203 4 0 8 -5 8 -12 0 -16 100 -168 111 -168 4 0 11 -9 14 -20 17
-54 291 -300 415 -373 52 -31 230 -121 245 -124 5 -1 39 -13 75 -26 36 -13 68
-25 73 -26 4 0 8 -1 10 -2 1 0 9 -2 17 -4 8 -2 44 -10 80 -19 36 -8 83 -17
105 -20 81 -11 265 -22 285 -16 3 1 30 3 60 4 151 9 344 52 477 108 16 6 30
12 33 13 3 1 37 16 75 35 109 52 193 106 319 202 101 78 346 364 346 405 0 7
5 13 10 13 6 0 10 6 10 14 0 8 3 16 8 18 6 2 72 130 77 148 1 3 7 19 14 35 7
17 14 35 15 40 1 6 4 15 7 20 8 13 33 87 34 100 0 6 7 30 14 55 7 25 15 55 17
68 2 12 6 34 9 50 20 113 26 332 12 447 -4 33 -9 77 -11 97 -2 21 -9 53 -15
71 -11 32 -15 47 -26 103 -3 12 -12 39 -21 60 -9 21 -17 45 -19 53 -2 9 -18
48 -36 86 -18 39 -32 73 -31 78 1 4 -2 7 -8 7 -5 0 -10 5 -10 11 0 13 -84 154
-103 174 -7 7 -19 23 -27 35 -25 38 -68 91 -108 134 -58 63 -197 186 -210 186
-7 0 -12 3 -12 8 0 12 -180 128 -192 124 -5 -1 -8 3 -8 8 0 5 -3 9 -7 8 -5 -1
-30 9 -58 23 -27 14 -77 36 -110 48 -33 13 -69 27 -80 31 -28 12 -172 48 -219
56 -21 3 -48 8 -60 11 -25 6 -362 14 -367 9z m266 -581 c72 -8 90 -11 133 -24
18 -5 36 -11 40 -12 12 -3 36 -11 52 -16 8 -4 20 -7 26 -8 41 -9 178 -87 254
-144 80 -60 230 -223 230 -250 0 -6 4 -11 9 -11 5 0 11 -8 15 -17 3 -10 17
-37 30 -60 54 -95 93 -224 110 -363 20 -166 -11 -250 -110 -295 -111 -50 -230
-7 -277 101 -10 22 -20 72 -22 110 -10 182 -91 339 -233 452 -30 23 -60 42
-68 42 -8 0 -14 4 -14 9 0 12 -131 62 -178 68 -20 2 -66 7 -101 10 -73 6 -105
17 -150 55 -47 40 -70 100 -66 171 2 33 8 63 15 67 6 4 12 11 12 16 3 33 75
91 120 96 15 2 30 6 32 9 6 6 53 4 141 -6z"/>
<path d="M5157 7365 c-25 -6 -54 -18 -64 -26 -42 -33 -1550 -1547 -1567 -1573
-10 -16 -20 -52 -23 -81 -9 -94 46 -179 131 -205 56 -17 112 -14 160 10 27 13
297 276 813 793 818 818 803 801 803 892 0 70 -45 140 -112 176 -49 25 -83 29
-141 14z"/>
<path d="M5751 6128 c-42 -20 -1566 -1539 -1589 -1583 -25 -50 -27 -126 -3
-179 21 -46 87 -104 128 -114 41 -10 103 -4 137 12 37 18 1554 1524 1588 1578
16 23 31 80 31 113 0 36 -29 100 -59 130 -65 65 -155 82 -233 43z"/>
<path d="M6995 5508 c-59 -21 -2 35 -1216 -1187 -220 -222 -393 -404 -402
-424 -48 -99 -12 -205 90 -268 45 -28 118 -32 169 -8 27 13 281 261 810 790
835 837 798 799 790 799 -3 0 2 16 10 35 25 60 7 143 -43 200 -52 60 -141 86
-208 63z"/>
<path d="M1145 3262 c-1 -1 -33 -5 -71 -7 -69 -4 -238 -35 -251 -45 -2 -2 -6
-3 -10 -4 -27 -6 -90 -30 -100 -39 -7 -5 -13 -7 -13 -3 0 13 -222 -118 -228
-135 -2 -5 -8 -9 -13 -9 -23 0 -165 -143 -236 -239 -36 -47 -116 -184 -118
-201 0 -3 -6 -14 -12 -25 -14 -25 -64 -188 -70 -229 -3 -17 -8 -51 -13 -75 -8
-46 -6 -270 4 -331 11 -71 46 -191 75 -262 35 -82 108 -212 140 -245 12 -12
21 -26 21 -30 1 -19 186 -194 255 -241 93 -63 278 -146 377 -168 10 -2 28 -6
41 -9 12 -3 45 -9 72 -13 66 -9 8024 -9 8097 1 32 4 68 11 80 16 13 5 25 9 28
9 36 1 242 79 248 94 2 4 10 8 17 8 13 0 64 30 110 64 116 87 194 160 244 226
14 19 36 46 49 60 12 14 22 30 22 37 0 7 5 13 10 13 6 0 10 6 10 14 0 7 8 24
18 37 18 24 68 131 74 159 2 8 6 17 9 20 8 7 47 156 55 215 10 63 11 263 2
330 -14 110 -54 247 -102 345 -31 64 -79 144 -88 148 -4 2 -8 10 -8 17 0 7 -3
15 -7 17 -5 2 -26 26 -48 53 -41 52 -165 175 -176 175 -4 0 -22 13 -40 30 -19
16 -38 30 -43 30 -5 0 -17 6 -25 14 -47 42 -265 131 -366 150 -16 3 -43 8 -60
12 -16 3 -91 8 -165 10 -141 6 -7790 11 -7795 6z"/>
</g>
</svg>
